Coordinates
version=1
nRows=26
nColumns=30
inDegrees=yes

Units are S.I. units (second, meters, Newtons, ...)
Angles are in degrees.

endheader
time	floatyaw	floatroll	floatpitch	floatx	floaty	floatz	pro_sup_l	deviation_l	flexion_l	cmc_flexion_l	cmc_abduction_l	mp_flexion_l	ip_flexion_l	2mcp_flexion_l	2mcp_abduction_l	2pm_flexion_l	2md_flexion_l	3mcp_flexion_l	3mcp_abduction_l	3pm_flexion_l	3md_flexion_l	4mcp_flexion_l	4mcp_abduction_l	4pm_flexion_l	4md_flexion_l	5mcp_flexion_l	5mcp_abduction_l	5pm_flexion_l	5md_flexion_l
-1.495000	-160.147433	-5.066637	-73.570646	0.081932	-0.182184	-0.017748	102.786099	4.108113	-1.232131	16.993787	4.484715	-24.922886	-40.875544	29.309015	6.989230	42.549145	28.923689	25.419697	4.339151	42.874792	28.197415	14.018870	-4.313451	51.474658	35.409735	1.152593	-9.042231	61.509256	43.275440
-1.485000	-160.147433	-5.066637	-73.570646	0.081932	-0.182180	-0.017746	102.804586	4.117468	-1.231391	16.993700	4.495700	-24.927936	-40.871598	29.312023	6.993469	42.554112	28.936276	25.412774	4.340775	42.890765	28.205786	14.016370	-4.313635	51.488366	35.411498	1.159736	-9.039644	61.508187	43.274459
-1.475000	-160.147433	-5.066637	-73.570646	0.081930	-0.182176	-0.017742	102.821185	4.127016	-1.231873	16.991736	4.515769	-24.933110	-40.870924	29.313895	6.998253	42.564552	28.950117	25.407953	4.343031	42.906024	28.212982	14.016704	-4.312278	51.499462	35.411562	1.170219	-9.039548	61.506597	43.270404
-1.465000	-160.147433	-5.066637	-73.570646	0.081927	-0.182173	-0.017738	102.832068	4.134526	-1.232124	16.981129	4.542600	-24.938239	-40.870302	29.314018	7.002684	42.577484	28.963442	25.403783	4.345360	42.919524	28.218732	14.016151	-4.310013	51.508053	35.411218	1.179325	-9.043278	61.505960	43.265292
-1.455000	-160.147433	-5.066637	-73.570646	0.081924	-0.182172	-0.017736	102.835050	4.138554	-1.230786	16.957768	4.572695	-24.943394	-40.867421	29.311652	7.005979	42.590451	28.975189	25.399045	4.347333	42.929248	28.222565	14.011448	-4.307798	51.514246	35.411868	1.183985	-9.050741	61.505629	43.260894
-1.445000	-160.147433	-5.066637	-73.570646	0.081921	-0.182172	-0.017735	102.830269	4.138866	-1.226901	16.922516	4.602277	-24.949074	-40.862453	29.306805	7.007628	42.601712	28.984807	25.393298	4.348745	42.932974	28.224177	14.001082	-4.306308	51.517621	35.414422	1.183189	-9.060590	61.503868	43.258422
-1.435000	-160.147433	-5.066637	-73.570646	0.081920	-0.182172	-0.017735	102.820045	4.136430	-1.220285	16.880890	4.629165	-24.956092	-40.858270	29.301429	7.007554	42.609710	28.991615	25.387117	4.349589	42.929756	28.223887	13.986037	-4.305499	51.517236	35.418820	1.177869	-9.070693	61.499224	43.258263
-1.425000	-160.147433	-5.066637	-73.570646	0.081920	-0.182171	-0.017736	102.808158	4.133123	-1.211802	16.840288	4.654498	-24.964991	-40.858822	29.299610	7.006247	42.612812	28.994520	25.381783	4.349899	42.921383	28.222971	13.969659	-4.304635	51.512198	35.423965	1.170608	-9.078730	61.491318	43.259788
-1.415000	-160.147433	-5.066637	-73.570646	0.081922	-0.182168	-0.017736	102.798704	4.131168	-1.203245	16.806559	4.682524	-24.975515	-40.866706	29.306048	7.004755	42.609749	28.992481	25.378552	4.349583	42.912571	28.223494	13.956538	-4.302762	51.502332	35.428136	1.165007	-9.082823	61.480724	43.261443
-1.405000	-160.147433	-5.066637	-73.570646	0.081923	-0.182163	-0.017734	102.794685	4.132312	-1.196670	16.781972	4.717894	-24.986828	-40.881688	29.323462	7.004335	42.600352	28.985362	25.377879	4.348413	42.909311	28.227509	13.950657	-4.299321	51.488460	35.429735	1.164402	-9.082134	61.468297	43.261335
-1.395000	-160.147433	-5.066637	-73.570646	0.081924	-0.182156	-0.017730	102.796763	4.136980	-1.193416	16.765434	4.761978	-24.998573	-40.901138	29.350418	7.005793	42.586061	28.974571	25.378880	4.346184	42.916099	28.235987	13.953479	-4.294553	51.472316	35.428105	1.170176	-9.077249	61.454653	43.258237
-1.385000	-160.147433	-5.066637	-73.570646	0.081925	-0.182150	-0.017724	102.802923	4.143882	-1.193344	16.754295	4.810674	-25.011928	-40.921855	29.381064	7.008840	42.569870	28.963079	25.379309	4.342938	42.933712	28.248199	13.962911	-4.289493	51.456325	35.424002	1.180640	-9.070033	61.440225	43.252532
-1.375000	-160.147433	-5.066637	-73.570646	0.081925	-0.182146	-0.017720	102.809452	4.150498	-1.194796	16.746183	4.855398	-25.029496	-40.941796	29.407284	7.012037	42.555568	28.954649	25.376255	4.339098	42.958835	28.261982	13.973916	-4.285563	51.443300	35.419425	1.191537	-9.062888	61.425626	43.246362
-1.365000	-160.147433	-5.066637	-73.570646	0.081925	-0.182144	-0.017718	102.812906	4.154319	-1.195428	16.739641	4.886792	-25.053555	-40.960487	29.422353	7.013533	42.546431	28.952413	25.367453	4.335457	42.985655	28.274723	13.980753	-4.283965	51.435911	35.416788	1.198317	-9.057720	61.411758	43.242593
-1.355000	-160.147433	-5.066637	-73.570646	0.081925	-0.182145	-0.017720	102.811995	4.154181	-1.193583	16.733536	4.898988	-25.083570	-40.978019	29.424054	7.012223	42.544162	28.957494	25.352646	4.333024	43.008476	28.284434	13.979780	-4.285150	51.435938	35.417832	1.198982	-9.055243	61.399437	43.243114
-1.345000	-160.147433	-5.066637	-73.570646	0.081926	-0.182147	-0.017726	102.808254	4.150818	-1.189494	16.726244	4.892203	-25.114838	-40.993665	29.415417	7.008549	42.548929	28.968625	25.334123	4.332731	43.024083	28.290460	13.971299	-4.288623	51.443662	35.422911	1.195617	-9.054967	61.388922	43.247611
-1.335000	-160.147433	-5.066637	-73.570646	0.081927	-0.182150	-0.017733	102.805029	4.146227	-1.185520	16.715640	4.872756	-25.139687	-41.005360	29.402704	7.004442	42.560390	28.983111	25.315937	4.335098	43.032868	28.293633	13.959354	-4.293203	51.457830	35.431029	1.193414	-9.055704	61.379797	43.253733
-1.325000	-160.147433	-5.066637	-73.570646	0.081926	-0.182153	-0.017741	102.805368	4.142262	-1.185024	16.699993	4.850746	-25.150883	-41.010492	29.391895	7.002481	42.578560	28.998441	25.302089	4.339978	43.038191	28.295856	13.949509	-4.297595	51.476305	35.440557	1.197597	-9.056165	61.371384	43.258539
-1.315000	-160.147433	-5.066637	-73.570646	0.081923	-0.182158	-0.017749	102.810136	4.139422	-1.190370	16.678997	4.836173	-25.145296	-41.007440	29.385793	7.004738	42.603466	29.013328	25.294717	4.346587	43.044160	28.299133	13.945775	-4.300975	51.497043	35.450115	1.210017	-9.055359	61.363441	43.260324
-1.305000	-160.147433	-5.066637	-73.570646	0.081919	-0.182165	-0.017758	102.817532	4.136693	-1.201262	16.654089	4.834767	-25.125764	-40.996941	29.383411	7.011838	42.633714	29.027488	25.293306	4.353804	43.052936	28.304382	13.948446	-4.303257	51.518763	35.459065	1.227554	-9.052849	61.356737	43.259739
-1.295000	-160.147433	-5.066637	-73.570646	0.081914	-0.182173	-0.017768	102.824289	4.132514	-1.214613	16.627859	4.845461	-25.100170	-40.982532	29.381779	7.022650	42.665364	29.040593	25.295344	4.360589	43.063300	28.310732	13.954153	-4.304946	51.540913	35.467393	1.243451	-9.048901	61.353138	43.259594
-1.285000	-160.147433	-5.066637	-73.570646	0.081908	-0.182181	-0.017779	102.827760	4.126151	-1.226091	16.602948	4.861075	-25.078166	-40.969689	29.378704	7.034728	42.692459	29.051442	25.297885	4.366275	43.071504	28.315843	13.958020	-4.306701	51.563047	35.475178	1.250931	-9.044450	61.355009	43.263428
-1.275000	-160.147433	-5.066637	-73.570646	0.081903	-0.182187	-0.017791	102.827604	4.118563	-1.232328	16.581047	4.872051	-25.067078	-40.963789	29.374522	7.045347	42.709192	29.057967	25.299076	4.370593	43.073823	28.317086	13.956534	-4.308874	51.584099	35.482095	1.246949	-9.040769	61.364058	43.273568
-1.265000	-160.147433	-5.066637	-73.570646	0.081900	-0.182189	-0.017800	102.826091	4.112253	-1.232368	16.562422	4.871367	-25.068916	-40.967790	29.371889	7.052630	42.712287	29.057917	25.298853	4.373487	43.069000	28.312795	13.949405	-4.311270	51.602029	35.487249	1.233878	-9.038947	61.380143	43.289705
-1.255000	-160.147433	-5.066637	-73.570646	0.081898	-0.182186	-0.017805	102.826761	4.110165	-1.227578	16.546092	4.858365	-25.079929	-40.980694	29.374047	7.056268	42.702288	29.049841	25.298623	4.374854	43.059102	28.302938	13.939519	-4.313241	51.614150	35.489449	1.218208	-9.039439	61.400743	43.308830
-1.245000	-160.147433	-5.066637	-73.570646	0.081899	-0.182177	-0.017803	102.832066	4.114157	-1.220368	16.530476	4.839922	-25.092870	-40.997544	29.382781	7.057528	42.683514	29.034187	25.300283	4.374434	43.048610	28.289200	13.931244	-4.314043	51.618199	35.487792	1.207121	-9.041901	61.421601	43.326581
